<svg width="17" height="18" viewBox="0 0 17 18" fill="none" xmlns="http://www.w3.org/2000/svg">
<path d="M0.0458074 1.26245C-0.201318 0.449221 0.598348 -0.277219 1.32029 0.104644L16.4963 8.13727C17.1679 8.49278 17.1679 9.50658 16.4963 9.86273L1.32029 17.8954C0.598955 18.2772 -0.201318 17.5508 0.0458074 16.7376L2.39684 9L0.0458074 1.26245ZM3.47642 9.64287L1.42352 16.4033L15.4113 9L1.42291 1.59674L3.47763 8.35649H10.3206C10.4817 8.35649 10.6361 8.42422 10.75 8.54478C10.8639 8.66534 10.9278 8.82886 10.9278 8.99936C10.9278 9.16986 10.8639 9.33337 10.75 9.45393C10.6361 9.57449 10.4817 9.64223 10.3206 9.64223H3.47763L3.47642 9.64287Z" fill="#737373"/>
</svg>
